<svg width="251" height="92" viewBox="0 0 251 92" fill="none" xmlns="http://www.w3.org/2000/svg">
<path d="M43.4169 4.49658L35.2294 5.92658L40.9377 12.4166L45.0419 11.6832L43.4169 4.49658ZM29.1044 6.98992L25.0002 7.70492L30.7294 14.1766L34.8127 13.4616L29.1044 6.98992ZM18.8961 8.74992L14.7919 9.50158L20.5211 15.9732L24.6044 15.2582L18.8961 8.74992ZM8.66689 10.5832L6.62523 10.9316C5.54269 11.1219 4.59023 11.6825 3.97698 12.4903C3.36373 13.2981 3.13981 14.287 3.35439 15.2399L4.16689 18.8332L14.3752 17.0549L8.66689 10.5832ZM4.16689 18.8332V37.1666C4.16689 39.2016 6.04189 40.8333 8.33356 40.8333H41.6669C43.9794 40.8333 45.8336 39.2016 45.8336 37.1666V18.8332H4.16689Z" fill="white"/>
<path d="M65.0264 12.85C64.5597 12.95 64.193 13.1333 63.9264 13.4C63.8597 13.4667 63.793 13.5833 63.7264 13.75C63.693 13.8833 63.6597 13.9833 63.6264 14.05C63.5597 14.15 63.493 14.7333 63.4264 15.8C63.393 16.8667 63.3597 18.1333 63.3264 19.6C63.293 21.0667 63.2764 22.6 63.2764 24.2C63.2764 25.7667 63.3264 27.1333 63.4264 28.3C63.5264 29.2667 63.7764 30.2167 64.1764 31.15C64.6097 32.05 65.3097 32.6333 66.2764 32.9C67.0097 32.9667 67.693 32.8667 68.3264 32.6C68.993 32.3 69.493 31.8167 69.8264 31.15C70.193 30.3833 70.343 29.5833 70.2764 28.75C70.243 27.8833 70.3097 27.0333 70.4764 26.2C70.943 26.2667 71.4597 26.2833 72.0264 26.25C72.6264 26.2167 73.2264 26.2 73.8264 26.2C74.4264 26.2 75.0097 26.2167 75.5764 26.25C76.1764 26.2833 76.7097 26.3667 77.1764 26.5C77.743 28.2333 77.893 29.9667 77.6264 31.7C77.3597 33.4 76.7764 34.9333 75.8764 36.3C74.9764 37.6667 73.793 38.8 72.3264 39.7C70.893 40.5667 69.2597 41.0167 67.4264 41.05C66.2264 41.2167 64.993 41.2167 63.7264 41.05C62.4597 40.9167 61.2764 40.6 60.1764 40.1C59.0764 39.5667 58.143 38.8333 57.3764 37.9C56.643 36.9667 56.2097 35.8 56.0764 34.4C56.0097 33.2 55.9597 31.95 55.9264 30.65C55.893 29.35 55.8597 27.9 55.8264 26.3C55.8264 24.6667 55.8264 22.8333 55.8264 20.8C55.8597 18.7333 55.893 16.35 55.9264 13.65C55.8597 13.0833 55.8764 12.5167 55.9764 11.95C56.1097 11.35 56.2764 10.8 56.4764 10.3C56.7764 9.43333 57.143 8.63333 57.5764 7.9C58.043 7.16667 58.593 6.51667 59.2264 5.95C59.593 5.68333 59.993 5.46666 60.4264 5.3C60.8597 5.1 61.3097 4.93333 61.7764 4.8C63.3097 4.3 64.8264 4.1 66.3264 4.2C67.8264 4.3 69.2264 4.65 70.5264 5.25C71.8597 5.81667 73.0597 6.58333 74.1264 7.55C75.193 8.51666 76.043 9.63333 76.6764 10.9C77.3097 12.1333 77.693 13.4833 77.8264 14.95C77.9597 16.4167 77.7597 17.9167 77.2264 19.45C75.993 19.7167 74.7764 19.8167 73.5764 19.75C72.4097 19.65 71.193 19.4833 69.9264 19.25C69.8264 18.6167 69.7597 17.9 69.7264 17.1C69.7264 16.3 69.643 15.5667 69.4764 14.9C69.3097 14.2 68.993 13.6333 68.5264 13.2C68.093 12.7667 67.393 12.5667 66.4264 12.6C65.993 12.6667 65.5264 12.75 65.0264 12.85ZM99.0904 5.15C99.7238 5.15 100.29 5.16667 100.79 5.2L102.14 40.2C101.574 40.3 100.957 40.3667 100.29 40.4C99.6571 40.4333 99.0238 40.45 98.3904 40.45C97.7904 40.45 97.1904 40.45 96.5904 40.45C96.0238 40.45 95.5404 40.4667 95.1404 40.5H95.0904C94.9238 39.4 94.8071 38.2667 94.7404 37.1C94.7071 35.9 94.6738 34.7167 94.6404 33.55C94.6404 32.3833 94.6238 31.2167 94.5904 30.05C94.5571 28.8833 94.4738 27.7667 94.3404 26.7L94.2904 26.65C93.3238 26.4833 92.3571 26.4 91.3904 26.4C90.4238 26.4 89.4571 26.5167 88.4904 26.75C88.3904 27.9167 88.3404 29.0667 88.3404 30.2C88.3738 31.3333 88.4071 32.4667 88.4404 33.6C88.4738 34.7333 88.4738 35.85 88.4404 36.95C88.4404 38.0167 88.3571 39.0833 88.1904 40.15C87.7904 40.3833 87.2571 40.5 86.5904 40.5C85.9238 40.5 85.2571 40.4667 84.5904 40.4C83.9238 40.3333 83.2904 40.2833 82.6904 40.25C82.1238 40.2167 81.6904 40.2833 81.3904 40.45C81.3238 39.5167 81.2404 38.25 81.1404 36.65C81.0738 35.0167 81.0071 33.2 80.9404 31.2C80.8738 29.1667 80.8071 27.0167 80.7404 24.75C80.7071 22.4833 80.6738 20.2167 80.6404 17.95C80.6071 15.65 80.5904 13.45 80.5904 11.35C80.6238 9.21667 80.6571 7.3 80.6904 5.6V5.55H80.7404H80.8404C81.3404 5.65 81.8571 5.68333 82.3904 5.65C82.9571 5.61667 83.5071 5.58333 84.0404 5.55C84.6071 5.51666 85.1571 5.5 85.6904 5.5C86.2238 5.5 86.7238 5.56666 87.1904 5.7C87.4904 8 87.6404 10.2333 87.6404 12.4C87.6404 14.5667 87.8404 16.7167 88.2404 18.85H88.2904C89.1238 19.05 90.0238 19.1167 90.9904 19.05C91.9571 18.95 92.8571 18.8667 93.6904 18.8H93.7404C93.9404 16.5 94.0404 14.35 94.0404 12.35C94.0738 10.35 94.0404 8.15 93.9404 5.75C94.3404 5.61666 94.8238 5.5 95.3904 5.4C95.9904 5.3 96.6071 5.23333 97.2404 5.2C97.8738 5.13333 98.4904 5.11667 99.0904 5.15ZM110.092 5.35C110.892 5.38333 112.042 5.38333 113.542 5.35H114.742V5.55C114.742 8.41666 114.692 11.3 114.592 14.2C114.525 17.1 114.458 20.0167 114.392 22.95C114.358 25.85 114.358 28.75 114.392 31.65C114.425 34.55 114.525 37.4167 114.692 40.25C114.425 40.5167 113.858 40.6667 112.992 40.7C112.158 40.7667 111.242 40.7833 110.242 40.75C109.275 40.7167 108.342 40.6667 107.442 40.6C106.542 40.5667 105.925 40.6 105.592 40.7C105.825 37.7 105.925 34.6833 105.892 31.65C105.858 28.6167 105.792 25.6167 105.692 22.65C105.625 19.65 105.575 16.7 105.542 13.8C105.542 10.8667 105.692 8 105.992 5.2V5.1C106.158 5.06666 106.475 5.08333 106.942 5.15C107.442 5.18333 107.808 5.2 108.042 5.2C108.642 5.23333 109.325 5.28333 110.092 5.35ZM139.43 35.05C139.43 35.3833 139.447 35.6833 139.48 35.95C139.547 37.15 139.58 38.0667 139.58 38.7C139.58 39.3 139.53 39.75 139.43 40.05C139.363 40.3167 139.23 40.4667 139.03 40.5C138.83 40.5 138.547 40.5 138.18 40.5C137.813 40.4667 137.33 40.4667 136.73 40.5C136.163 40.5333 135.18 40.5667 133.78 40.6C132.413 40.6333 130.513 40.65 128.08 40.65C125.68 40.65 122.463 40.6167 118.43 40.55V39.65C118.53 37.15 118.613 34.9 118.68 32.9C118.747 30.8667 118.78 28.9833 118.78 27.25C118.813 25.4833 118.83 23.7833 118.83 22.15C118.83 20.5167 118.813 18.85 118.78 17.15C118.747 15.45 118.713 13.65 118.68 11.75C118.647 9.81667 118.613 7.68333 118.58 5.35C118.913 5.21667 119.43 5.11667 120.13 5.05C120.83 4.95 121.58 4.9 122.38 4.9C123.18 4.9 123.963 4.95 124.73 5.05C125.497 5.15 126.113 5.3 126.58 5.5C126.513 7.66666 126.48 9.9 126.48 12.2C126.513 14.4667 126.547 16.75 126.58 19.05C126.613 21.35 126.63 23.65 126.63 25.95C126.663 28.2167 126.663 30.4167 126.63 32.55V32.6C126.863 32.5333 127.297 32.5167 127.93 32.55C128.597 32.55 129.363 32.5667 130.23 32.6C131.097 32.6333 132.013 32.6833 132.98 32.75C133.98 32.7833 134.913 32.8167 135.78 32.85C136.68 32.8833 137.463 32.9167 138.13 32.95C138.83 32.95 139.313 32.9333 139.58 32.9C139.58 33.2667 139.563 33.6333 139.53 34C139.497 34.3333 139.463 34.6833 139.43 35.05ZM162.477 35.05C162.477 35.3833 162.493 35.6833 162.527 35.95C162.593 37.15 162.627 38.0667 162.627 38.7C162.627 39.3 162.577 39.75 162.477 40.05C162.41 40.3167 162.277 40.4667 162.077 40.5C161.877 40.5 161.593 40.5 161.227 40.5C160.86 40.4667 160.377 40.4667 159.777 40.5C159.21 40.5333 158.227 40.5667 156.827 40.6C155.46 40.6333 153.56 40.65 151.127 40.65C148.727 40.65 145.51 40.6167 141.477 40.55V39.65C141.577 37.15 141.66 34.9 141.727 32.9C141.793 30.8667 141.827 28.9833 141.827 27.25C141.86 25.4833 141.877 23.7833 141.877 22.15C141.877 20.5167 141.86 18.85 141.827 17.15C141.793 15.45 141.76 13.65 141.727 11.75C141.693 9.81667 141.66 7.68333 141.627 5.35C141.96 5.21667 142.477 5.11667 143.177 5.05C143.877 4.95 144.627 4.9 145.427 4.9C146.227 4.9 147.01 4.95 147.777 5.05C148.543 5.15 149.16 5.3 149.627 5.5C149.56 7.66666 149.527 9.9 149.527 12.2C149.56 14.4667 149.593 16.75 149.627 19.05C149.66 21.35 149.677 23.65 149.677 25.95C149.71 28.2167 149.71 30.4167 149.677 32.55V32.6C149.91 32.5333 150.343 32.5167 150.977 32.55C151.643 32.55 152.41 32.5667 153.277 32.6C154.143 32.6333 155.06 32.6833 156.027 32.75C157.027 32.7833 157.96 32.8167 158.827 32.85C159.727 32.8833 160.51 32.9167 161.177 32.95C161.877 32.95 162.36 32.9333 162.627 32.9C162.627 33.2667 162.61 33.6333 162.577 34C162.543 34.3333 162.51 34.6833 162.477 35.05Z" fill="white"/>
<path d="M9.232 76.244C10.416 76.244 11.4453 76.468 12.32 76.916C13.1947 77.364 13.8667 77.9933 14.336 78.804C14.8053 79.604 15.04 80.532 15.04 81.588C15.04 82.4307 14.9013 83.2413 14.624 84.02C14.3467 84.788 13.9413 85.412 13.408 85.892C12.8853 86.372 12.272 86.612 11.568 86.612C11.0347 86.612 10.624 86.4787 10.336 86.212C10.048 85.9453 9.88267 85.5827 9.84 85.124C9.50933 85.5827 9.088 85.9453 8.576 86.212C8.07467 86.4787 7.54133 86.612 6.976 86.612C6.16533 86.612 5.52533 86.3667 5.056 85.876C4.59733 85.3747 4.368 84.7027 4.368 83.86C4.368 83.06 4.53333 82.3133 4.864 81.62C5.20533 80.9267 5.67467 80.372 6.272 79.956C6.86933 79.5293 7.54667 79.316 8.304 79.316C9.31733 79.316 10 79.7 10.352 80.468L10.528 79.476H11.792L10.992 84.1C10.96 84.3027 10.944 84.4893 10.944 84.66C10.944 85.3 11.2267 85.62 11.792 85.62C12.2187 85.62 12.5867 85.4173 12.896 85.012C13.216 84.6067 13.456 84.1 13.616 83.492C13.776 82.8733 13.856 82.2653 13.856 81.668C13.856 80.2707 13.4347 79.188 12.592 78.42C11.76 77.652 10.5813 77.268 9.056 77.268C7.78667 77.268 6.64 77.5773 5.616 78.196C4.60267 78.804 3.808 79.6413 3.232 80.708C2.656 81.7747 2.368 82.9533 2.368 84.244C2.35733 85.652 2.77867 86.7347 3.632 87.492C4.48533 88.26 5.66933 88.644 7.184 88.644C8.18667 88.644 9.072 88.4627 9.84 88.1L10.032 89.092C9.08267 89.4867 8.03733 89.684 6.896 89.684C5.75467 89.684 4.74667 89.4653 3.872 89.028C3.008 88.6013 2.336 87.9827 1.856 87.172C1.38667 86.372 1.152 85.4387 1.152 84.372C1.152 82.868 1.49867 81.4973 2.192 80.26C2.88533 79.012 3.84533 78.0307 5.072 77.316C6.30933 76.6013 7.696 76.244 9.232 76.244ZM7.408 85.476C7.888 85.476 8.33067 85.3373 8.736 85.06C9.14133 84.772 9.46133 84.388 9.696 83.908C9.93067 83.4173 10.048 82.884 10.048 82.308C10.048 81.7533 9.89333 81.3053 9.584 80.964C9.28533 80.612 8.85867 80.436 8.304 80.436C7.792 80.436 7.33867 80.5907 6.944 80.9C6.56 81.1987 6.26133 81.5987 6.048 82.1C5.83467 82.5907 5.728 83.1027 5.728 83.636C5.728 84.2013 5.872 84.6493 6.16 84.98C6.448 85.3107 6.864 85.476 7.408 85.476ZM17.0191 85.332C18.3738 84.244 19.4351 83.3533 20.2031 82.66C20.9711 81.956 21.6165 81.2253 22.1391 80.468C22.6725 79.7 22.9391 78.948 22.9391 78.212C22.9391 77.5187 22.7685 76.9747 22.4271 76.58C22.0965 76.1747 21.5578 75.972 20.8111 75.972C20.0858 75.972 19.5205 76.2013 19.1151 76.66C18.7205 77.108 18.5071 77.7107 18.4751 78.468H17.0671C17.1098 77.2733 17.4725 76.3507 18.1551 75.7C18.8378 75.0493 19.7178 74.724 20.7951 74.724C21.8938 74.724 22.7631 75.028 23.4031 75.636C24.0538 76.244 24.3791 77.0813 24.3791 78.148C24.3791 79.0333 24.1125 79.8973 23.5791 80.74C23.0565 81.572 22.4591 82.308 21.7871 82.948C21.1151 83.5773 20.2565 84.3133 19.2111 85.156H24.7151V86.372H17.0191V85.332ZM26.3983 80.596C26.3983 78.7613 26.6969 77.332 27.2943 76.308C27.8916 75.2733 28.9369 74.756 30.4303 74.756C31.9129 74.756 32.9529 75.2733 33.5503 76.308C34.1476 77.332 34.4462 78.7613 34.4462 80.596C34.4462 82.4627 34.1476 83.9133 33.5503 84.948C32.9529 85.9827 31.9129 86.5 30.4303 86.5C28.9369 86.5 27.8916 85.9827 27.2943 84.948C26.6969 83.9133 26.3983 82.4627 26.3983 80.596ZM33.0063 80.596C33.0063 79.668 32.9423 78.884 32.8143 78.244C32.6969 77.5933 32.4463 77.0707 32.0623 76.676C31.6889 76.2813 31.1449 76.084 30.4303 76.084C29.7049 76.084 29.1503 76.2813 28.7663 76.676C28.3929 77.0707 28.1423 77.5933 28.0143 78.244C27.8969 78.884 27.8383 79.668 27.8383 80.596C27.8383 81.556 27.8969 82.3613 28.0143 83.012C28.1423 83.6627 28.3929 84.1853 28.7663 84.58C29.1503 84.9747 29.7049 85.172 30.4303 85.172C31.1449 85.172 31.6889 84.9747 32.0623 84.58C32.4463 84.1853 32.6969 83.6627 32.8143 83.012C32.9423 82.3613 33.0063 81.556 33.0063 80.596ZM36.2691 85.332C37.6238 84.244 38.6851 83.3533 39.4531 82.66C40.2211 81.956 40.8665 81.2253 41.3891 80.468C41.9225 79.7 42.1891 78.948 42.1891 78.212C42.1891 77.5187 42.0185 76.9747 41.6771 76.58C41.3465 76.1747 40.8078 75.972 40.0611 75.972C39.3358 75.972 38.7705 76.2013 38.3651 76.66C37.9705 77.108 37.7571 77.7107 37.7251 78.468H36.3171C36.3598 77.2733 36.7225 76.3507 37.4051 75.7C38.0878 75.0493 38.9678 74.724 40.0451 74.724C41.1438 74.724 42.0131 75.028 42.6531 75.636C43.3038 76.244 43.6291 77.0813 43.6291 78.148C43.6291 79.0333 43.3625 79.8973 42.8291 80.74C42.3065 81.572 41.7091 82.308 41.0371 82.948C40.3651 83.5773 39.5065 84.3133 38.4611 85.156H43.9651V86.372H36.2691V85.332ZM45.6163 77.844C45.6909 76.8627 46.0696 76.0947 46.7523 75.54C47.4349 74.9853 48.3203 74.708 49.4083 74.708C50.1336 74.708 50.7576 74.8413 51.2803 75.108C51.8136 75.364 52.2136 75.716 52.4803 76.164C52.7576 76.612 52.8963 77.1187 52.8963 77.684C52.8963 78.3453 52.7043 78.916 52.3203 79.396C51.9469 79.876 51.4563 80.1853 50.8483 80.324V80.404C51.5416 80.5747 52.0909 80.9107 52.4963 81.412C52.9016 81.9133 53.1042 82.5693 53.1042 83.38C53.1042 83.988 52.9656 84.5373 52.6883 85.028C52.4109 85.508 51.9949 85.8867 51.4403 86.164C50.8856 86.4413 50.2189 86.58 49.4403 86.58C48.3096 86.58 47.3816 86.2867 46.6562 85.7C45.9309 85.1027 45.5256 84.26 45.4403 83.172H46.8483C46.9229 83.812 47.1843 84.3347 47.6323 84.74C48.0803 85.1453 48.6776 85.348 49.4243 85.348C50.1709 85.348 50.7363 85.156 51.1203 84.772C51.5149 84.3773 51.7123 83.8707 51.7123 83.252C51.7123 82.452 51.4456 81.876 50.9123 81.524C50.3789 81.172 49.5736 80.996 48.4963 80.996H48.1283V79.78H48.5123C49.4936 79.7693 50.2349 79.6093 50.7363 79.3C51.2376 78.98 51.4883 78.4893 51.4883 77.828C51.4883 77.2627 51.3016 76.8093 50.9283 76.468C50.5656 76.1267 50.0429 75.956 49.3602 75.956C48.6989 75.956 48.1656 76.1267 47.7603 76.468C47.3549 76.8093 47.1149 77.268 47.0403 77.844H45.6163ZM59.0318 80.916C59.0318 79.828 59.2771 78.852 59.7678 77.988C60.2584 77.1133 60.9251 76.4307 61.7678 75.94C62.6211 75.4493 63.5651 75.204 64.5998 75.204C65.8158 75.204 66.8771 75.4973 67.7838 76.084C68.6904 76.6707 69.3518 77.5027 69.7678 78.58H68.0238C67.7144 77.908 67.2664 77.3907 66.6798 77.028C66.1038 76.6653 65.4104 76.484 64.5998 76.484C63.8211 76.484 63.1224 76.6653 62.5038 77.028C61.8851 77.3907 61.3998 77.908 61.0478 78.58C60.6958 79.2413 60.5198 80.02 60.5198 80.916C60.5198 81.8013 60.6958 82.58 61.0478 83.252C61.3998 83.9133 61.8851 84.4253 62.5038 84.788C63.1224 85.1507 63.8211 85.332 64.5998 85.332C65.4104 85.332 66.1038 85.156 66.6798 84.804C67.2664 84.4413 67.7144 83.924 68.0238 83.252H69.7678C69.3518 84.3187 68.6904 85.1453 67.7838 85.732C66.8771 86.308 65.8158 86.596 64.5998 86.596C63.5651 86.596 62.6211 86.356 61.7678 85.876C60.9251 85.3853 60.2584 84.708 59.7678 83.844C59.2771 82.98 59.0318 82.004 59.0318 80.916ZM76.2871 77.572C76.9485 77.572 77.5458 77.716 78.0791 78.004C78.6125 78.2813 79.0285 78.7027 79.3271 79.268C79.6365 79.8333 79.7911 80.5213 79.7911 81.332V86.5H78.3511V81.54C78.3511 80.6653 78.1325 79.9987 77.6951 79.54C77.2578 79.0707 76.6605 78.836 75.9031 78.836C75.1351 78.836 74.5218 79.076 74.0631 79.556C73.6151 80.036 73.3911 80.7347 73.3911 81.652V86.5H71.9351V74.66H73.3911V78.98C73.6791 78.532 74.0738 78.1853 74.5751 77.94C75.0871 77.6947 75.6578 77.572 76.2871 77.572ZM82.9215 76.308C82.6442 76.308 82.4095 76.212 82.2175 76.02C82.0255 75.828 81.9295 75.5933 81.9295 75.316C81.9295 75.0387 82.0255 74.804 82.2175 74.612C82.4095 74.42 82.6442 74.324 82.9215 74.324C83.1882 74.324 83.4122 74.42 83.5935 74.612C83.7855 74.804 83.8815 75.0387 83.8815 75.316C83.8815 75.5933 83.7855 75.828 83.5935 76.02C83.4122 76.212 83.1882 76.308 82.9215 76.308ZM83.6255 77.732V86.5H82.1695V77.732H83.6255ZM87.563 74.66V86.5H86.107V74.66H87.563ZM91.5005 74.66V86.5H90.0445V74.66H91.5005ZM104.84 84.02H99.9756L99.0796 86.5H97.5436L101.576 75.412H103.256L107.272 86.5H105.736L104.84 84.02ZM104.424 82.836L102.408 77.204L100.392 82.836H104.424ZM110.485 74.66V86.5H109.029V74.66H110.485ZM114.422 74.66V86.5H112.966V74.66H114.422ZM127.042 86.5L124.386 81.94H122.626V86.5H121.17V75.348H124.77C125.612 75.348 126.322 75.492 126.898 75.78C127.484 76.068 127.922 76.4573 128.21 76.948C128.498 77.4387 128.642 77.9987 128.642 78.628C128.642 79.396 128.418 80.0733 127.97 80.66C127.532 81.2467 126.871 81.636 125.986 81.828L128.786 86.5H127.042ZM122.626 80.772H124.77C125.559 80.772 126.151 80.58 126.546 80.196C126.94 79.8013 127.138 79.2787 127.138 78.628C127.138 77.9667 126.94 77.4547 126.546 77.092C126.162 76.7293 125.57 76.548 124.77 76.548H122.626V80.772ZM131.656 76.308C131.379 76.308 131.144 76.212 130.952 76.02C130.76 75.828 130.664 75.5933 130.664 75.316C130.664 75.0387 130.76 74.804 130.952 74.612C131.144 74.42 131.379 74.324 131.656 74.324C131.923 74.324 132.147 74.42 132.328 74.612C132.52 74.804 132.616 75.0387 132.616 75.316C132.616 75.5933 132.52 75.828 132.328 76.02C132.147 76.212 131.923 76.308 131.656 76.308ZM132.36 77.732V86.5H130.904V77.732H132.36ZM138.457 77.588C139.215 77.588 139.876 77.7533 140.441 78.084C141.017 78.4147 141.444 78.8307 141.721 79.332V77.732H143.193V86.692C143.193 87.492 143.023 88.2013 142.681 88.82C142.34 89.4493 141.849 89.94 141.209 90.292C140.58 90.644 139.844 90.82 139.001 90.82C137.849 90.82 136.889 90.548 136.121 90.004C135.353 89.46 134.9 88.7187 134.761 87.78H136.201C136.361 88.3133 136.692 88.74 137.193 89.06C137.695 89.3907 138.297 89.556 139.001 89.556C139.801 89.556 140.452 89.3053 140.953 88.804C141.465 88.3027 141.721 87.5987 141.721 86.692V84.852C141.433 85.364 141.007 85.7907 140.441 86.132C139.876 86.4733 139.215 86.644 138.457 86.644C137.679 86.644 136.969 86.452 136.329 86.068C135.7 85.684 135.204 85.1453 134.841 84.452C134.479 83.7587 134.297 82.9693 134.297 82.084C134.297 81.188 134.479 80.404 134.841 79.732C135.204 79.0493 135.7 78.5213 136.329 78.148C136.969 77.7747 137.679 77.588 138.457 77.588ZM141.721 82.1C141.721 81.4387 141.588 80.8627 141.321 80.372C141.055 79.8813 140.692 79.508 140.233 79.252C139.785 78.9853 139.289 78.852 138.745 78.852C138.201 78.852 137.705 78.98 137.257 79.236C136.809 79.492 136.452 79.8653 136.185 80.356C135.919 80.8467 135.785 81.4227 135.785 82.084C135.785 82.756 135.919 83.3427 136.185 83.844C136.452 84.3347 136.809 84.7133 137.257 84.98C137.705 85.236 138.201 85.364 138.745 85.364C139.289 85.364 139.785 85.236 140.233 84.98C140.692 84.7133 141.055 84.3347 141.321 83.844C141.588 83.3427 141.721 82.7613 141.721 82.1ZM150.006 77.572C150.667 77.572 151.265 77.716 151.798 78.004C152.331 78.2813 152.747 78.7027 153.046 79.268C153.355 79.8333 153.51 80.5213 153.51 81.332V86.5H152.07V81.54C152.07 80.6653 151.851 79.9987 151.414 79.54C150.977 79.0707 150.379 78.836 149.622 78.836C148.854 78.836 148.241 79.076 147.782 79.556C147.334 80.036 147.11 80.7347 147.11 81.652V86.5H145.654V74.66H147.11V78.98C147.398 78.532 147.793 78.1853 148.294 77.94C148.806 77.6947 149.377 77.572 150.006 77.572ZM157.664 78.932V84.1C157.664 84.5267 157.755 84.8307 157.936 85.012C158.118 85.1827 158.432 85.268 158.88 85.268H159.952V86.5H158.64C157.83 86.5 157.222 86.3133 156.816 85.94C156.411 85.5667 156.208 84.9533 156.208 84.1V78.932H155.072V77.732H156.208V75.524H157.664V77.732H159.952V78.932H157.664ZM164.82 86.644C164.148 86.644 163.546 86.532 163.012 86.308C162.479 86.0733 162.058 85.7533 161.748 85.348C161.439 84.932 161.268 84.4573 161.236 83.924H162.74C162.783 84.3613 162.986 84.7187 163.348 84.996C163.722 85.2733 164.207 85.412 164.804 85.412C165.359 85.412 165.796 85.2893 166.116 85.044C166.436 84.7987 166.596 84.4893 166.596 84.116C166.596 83.732 166.426 83.4493 166.084 83.268C165.743 83.076 165.215 82.8893 164.5 82.708C163.85 82.5373 163.316 82.3667 162.9 82.196C162.495 82.0147 162.143 81.7533 161.844 81.412C161.556 81.06 161.412 80.6013 161.412 80.036C161.412 79.588 161.546 79.1773 161.812 78.804C162.079 78.4307 162.458 78.1373 162.948 77.924C163.439 77.7 163.999 77.588 164.628 77.588C165.599 77.588 166.383 77.8333 166.98 78.324C167.578 78.8147 167.898 79.4867 167.94 80.34H166.484C166.452 79.8813 166.266 79.5133 165.924 79.236C165.594 78.9587 165.146 78.82 164.58 78.82C164.058 78.82 163.642 78.932 163.332 79.156C163.023 79.38 162.868 79.6733 162.868 80.036C162.868 80.324 162.959 80.564 163.14 80.756C163.332 80.9373 163.567 81.0867 163.844 81.204C164.132 81.3107 164.527 81.4333 165.028 81.572C165.658 81.7427 166.17 81.9133 166.564 82.084C166.959 82.244 167.295 82.4893 167.572 82.82C167.86 83.1507 168.01 83.5827 168.02 84.116C168.02 84.596 167.887 85.028 167.62 85.412C167.354 85.796 166.975 86.1 166.484 86.324C166.004 86.5373 165.45 86.644 164.82 86.644ZM180.213 86.5L177.557 81.94H175.797V86.5H174.341V75.348H177.941C178.784 75.348 179.493 75.492 180.069 75.78C180.656 76.068 181.093 76.4573 181.381 76.948C181.669 77.4387 181.813 77.9987 181.813 78.628C181.813 79.396 181.589 80.0733 181.141 80.66C180.704 81.2467 180.043 81.636 179.157 81.828L181.957 86.5H180.213ZM175.797 80.772H177.941C178.731 80.772 179.323 80.58 179.717 80.196C180.112 79.8013 180.309 79.2787 180.309 78.628C180.309 77.9667 180.112 77.4547 179.717 77.092C179.333 76.7293 178.741 76.548 177.941 76.548H175.797V80.772ZM192.076 81.78C192.076 82.0573 192.06 82.3507 192.028 82.66H185.02C185.073 83.524 185.366 84.2013 185.9 84.692C186.444 85.172 187.1 85.412 187.868 85.412C188.497 85.412 189.02 85.268 189.436 84.98C189.862 84.6813 190.161 84.2867 190.332 83.796H191.9C191.665 84.6387 191.196 85.3267 190.492 85.86C189.788 86.3827 188.913 86.644 187.868 86.644C187.036 86.644 186.289 86.4573 185.628 86.084C184.977 85.7107 184.465 85.1827 184.092 84.5C183.718 83.8067 183.532 83.0067 183.532 82.1C183.532 81.1933 183.713 80.3987 184.076 79.716C184.438 79.0333 184.945 78.5107 185.596 78.148C186.257 77.7747 187.014 77.588 187.868 77.588C188.7 77.588 189.436 77.7693 190.076 78.132C190.716 78.4947 191.206 78.996 191.548 79.636C191.9 80.2653 192.076 80.98 192.076 81.78ZM190.572 81.476C190.572 80.9213 190.449 80.4467 190.204 80.052C189.958 79.6467 189.622 79.3427 189.196 79.14C188.78 78.9267 188.316 78.82 187.804 78.82C187.068 78.82 186.438 79.0547 185.916 79.524C185.404 79.9933 185.11 80.644 185.036 81.476H190.572ZM197.102 86.644C196.43 86.644 195.827 86.532 195.294 86.308C194.76 86.0733 194.339 85.7533 194.03 85.348C193.72 84.932 193.55 84.4573 193.518 83.924H195.022C195.064 84.3613 195.267 84.7187 195.63 84.996C196.003 85.2733 196.488 85.412 197.086 85.412C197.64 85.412 198.078 85.2893 198.398 85.044C198.718 84.7987 198.878 84.4893 198.878 84.116C198.878 83.732 198.707 83.4493 198.366 83.268C198.024 83.076 197.496 82.8893 196.782 82.708C196.131 82.5373 195.598 82.3667 195.182 82.196C194.776 82.0147 194.424 81.7533 194.126 81.412C193.838 81.06 193.694 80.6013 193.694 80.036C193.694 79.588 193.827 79.1773 194.094 78.804C194.36 78.4307 194.739 78.1373 195.23 77.924C195.72 77.7 196.28 77.588 196.91 77.588C197.88 77.588 198.664 77.8333 199.262 78.324C199.859 78.8147 200.179 79.4867 200.222 80.34H198.766C198.734 79.8813 198.547 79.5133 198.206 79.236C197.875 78.9587 197.427 78.82 196.862 78.82C196.339 78.82 195.923 78.932 195.614 79.156C195.304 79.38 195.15 79.6733 195.15 80.036C195.15 80.324 195.24 80.564 195.422 80.756C195.614 80.9373 195.848 81.0867 196.126 81.204C196.414 81.3107 196.808 81.4333 197.31 81.572C197.939 81.7427 198.451 81.9133 198.846 82.084C199.24 82.244 199.576 82.4893 199.854 82.82C200.142 83.1507 200.291 83.5827 200.302 84.116C200.302 84.596 200.168 85.028 199.902 85.412C199.635 85.796 199.256 86.1 198.766 86.324C198.286 86.5373 197.731 86.644 197.102 86.644ZM210.357 81.78C210.357 82.0573 210.341 82.3507 210.309 82.66H203.301C203.354 83.524 203.648 84.2013 204.181 84.692C204.725 85.172 205.381 85.412 206.149 85.412C206.778 85.412 207.301 85.268 207.717 84.98C208.144 84.6813 208.442 84.2867 208.613 83.796H210.181C209.946 84.6387 209.477 85.3267 208.773 85.86C208.069 86.3827 207.194 86.644 206.149 86.644C205.317 86.644 204.57 86.4573 203.909 86.084C203.258 85.7107 202.746 85.1827 202.373 84.5C202 83.8067 201.813 83.0067 201.813 82.1C201.813 81.1933 201.994 80.3987 202.357 79.716C202.72 79.0333 203.226 78.5107 203.877 78.148C204.538 77.7747 205.296 77.588 206.149 77.588C206.981 77.588 207.717 77.7693 208.357 78.132C208.997 78.4947 209.488 78.996 209.829 79.636C210.181 80.2653 210.357 80.98 210.357 81.78ZM208.853 81.476C208.853 80.9213 208.73 80.4467 208.485 80.052C208.24 79.6467 207.904 79.3427 207.477 79.14C207.061 78.9267 206.597 78.82 206.085 78.82C205.349 78.82 204.72 79.0547 204.197 79.524C203.685 79.9933 203.392 80.644 203.317 81.476H208.853ZM213.735 79.156C213.991 78.6547 214.354 78.2653 214.823 77.988C215.303 77.7107 215.884 77.572 216.567 77.572V79.076H216.183C214.551 79.076 213.735 79.9613 213.735 81.732V86.5H212.279V77.732H213.735V79.156ZM221.512 85.156L224.232 77.732H225.784L222.344 86.5H220.648L217.208 77.732H218.776L221.512 85.156ZM235.216 81.78C235.216 82.0573 235.2 82.3507 235.168 82.66H228.16C228.214 83.524 228.507 84.2013 229.04 84.692C229.584 85.172 230.24 85.412 231.008 85.412C231.638 85.412 232.16 85.268 232.576 84.98C233.003 84.6813 233.302 84.2867 233.472 83.796H235.04C234.806 84.6387 234.336 85.3267 233.632 85.86C232.928 86.3827 232.054 86.644 231.008 86.644C230.176 86.644 229.43 86.4573 228.768 86.084C228.118 85.7107 227.606 85.1827 227.232 84.5C226.859 83.8067 226.672 83.0067 226.672 82.1C226.672 81.1933 226.854 80.3987 227.216 79.716C227.579 79.0333 228.086 78.5107 228.736 78.148C229.398 77.7747 230.155 77.588 231.008 77.588C231.84 77.588 232.576 77.7693 233.216 78.132C233.856 78.4947 234.347 78.996 234.688 79.636C235.04 80.2653 235.216 80.98 235.216 81.78ZM233.712 81.476C233.712 80.9213 233.59 80.4467 233.344 80.052C233.099 79.6467 232.763 79.3427 232.336 79.14C231.92 78.9267 231.456 78.82 230.944 78.82C230.208 78.82 229.579 79.0547 229.056 79.524C228.544 79.9933 228.251 80.644 228.176 81.476H233.712ZM236.594 82.084C236.594 81.188 236.776 80.404 237.138 79.732C237.501 79.0493 237.997 78.5213 238.626 78.148C239.266 77.7747 239.981 77.588 240.77 77.588C241.453 77.588 242.088 77.748 242.674 78.068C243.261 78.3773 243.709 78.788 244.018 79.3V74.66H245.49V86.5H244.018V84.852C243.73 85.3747 243.304 85.8067 242.738 86.148C242.173 86.4787 241.512 86.644 240.754 86.644C239.976 86.644 239.266 86.452 238.626 86.068C237.997 85.684 237.501 85.1453 237.138 84.452C236.776 83.7587 236.594 82.9693 236.594 82.084ZM244.018 82.1C244.018 81.4387 243.885 80.8627 243.618 80.372C243.352 79.8813 242.989 79.508 242.53 79.252C242.082 78.9853 241.586 78.852 241.042 78.852C240.498 78.852 240.002 78.98 239.554 79.236C239.106 79.492 238.749 79.8653 238.482 80.356C238.216 80.8467 238.082 81.4227 238.082 82.084C238.082 82.756 238.216 83.3427 238.482 83.844C238.749 84.3347 239.106 84.7133 239.554 84.98C240.002 85.236 240.498 85.364 241.042 85.364C241.586 85.364 242.082 85.236 242.53 84.98C242.989 84.7133 243.352 84.3347 243.618 83.844C243.885 83.3427 244.018 82.7613 244.018 82.1ZM248.415 86.596C248.137 86.596 247.903 86.5 247.711 86.308C247.519 86.116 247.423 85.8813 247.423 85.604C247.423 85.3267 247.519 85.092 247.711 84.9C247.903 84.708 248.137 84.612 248.415 84.612C248.681 84.612 248.905 84.708 249.087 84.9C249.279 85.092 249.375 85.3267 249.375 85.604C249.375 85.8813 249.279 86.116 249.087 86.308C248.905 86.5 248.681 86.596 248.415 86.596Z" fill="#C1C2C4"/>
</svg>
